<?xml version="1.0" encoding="UTF-8" standalone="no"?>
<!DOCTYPE svg PUBLIC "-//W3C//DTD SVG 1.1//EN" "http://www.w3.org/Graphics/SVG/1.1/DTD/svg11.dtd">
<svg width="100%" height="100%" viewBox="0 0 15 19" version="1.1" xmlns="http://www.w3.org/2000/svg" xmlns:xlink="http://www.w3.org/1999/xlink" xml:space="preserve" xmlns:serif="http://www.serif.com/" style="fill-rule:evenodd;clip-rule:evenodd;stroke-linecap:round;stroke-linejoin:round;stroke-miterlimit:1.5;">
    <g transform="matrix(1,0,0,1,-1246.77,-371.425)">
        <g transform="matrix(3.84068e-17,-0.57929,0.627231,3.54713e-17,1070.9,1120.75)">
            <g transform="matrix(1,0,0,1,38.2356,-137.732)">
                <g transform="matrix(1,0,0,1,-5.59567,-0.672492)">
                    <rect x="1258.42" y="429.676" width="1.543" height="4.24" style="fill:rgb(186,231,134);stroke:rgb(186,231,134);stroke-width:1.77px;"/>
                </g>
                <path d="M1249.34,441.579C1251.34,441.58 1253.1,440.37 1253.67,438.604C1254.11,437.037 1254.37,435.408 1254.37,433.762C1254.37,425.132 1247.55,418.127 1239.15,418.127C1230.75,418.127 1223.94,425.132 1223.94,433.762C1223.94,435.511 1224.22,437.241 1224.78,438.88C1225.33,440.464 1226.92,441.537 1228.72,441.537C1233.71,441.579 1244.19,441.579 1249.34,441.579Z" style="fill:rgb(186,231,134);"/>
            </g>
        </g>
    </g>
</svg>
