<?xml version="1.0" encoding="UTF-8" standalone="no"?>
<!DOCTYPE svg PUBLIC "-//W3C//DTD SVG 1.1//EN" "http://www.w3.org/Graphics/SVG/1.1/DTD/svg11.dtd">
<svg width="100%" height="100%" viewBox="0 0 170 151" version="1.1" xmlns="http://www.w3.org/2000/svg" xmlns:xlink="http://www.w3.org/1999/xlink" xml:space="preserve" xmlns:serif="http://www.serif.com/" style="fill-rule:evenodd;clip-rule:evenodd;stroke-linecap:round;stroke-linejoin:round;stroke-miterlimit:1.5;">
    <g transform="matrix(1,0,0,1,-1179.13,-220.523)">
        <g transform="matrix(3.84068e-17,-0.627231,0.627231,3.84068e-17,1079.73,1163.16)">
            <g>
                <g>
                    <g transform="matrix(1.90739,0,0,1.90739,-1530.4,-306.306)">
                        <g>
                            <g>
                                <g transform="matrix(0.814998,0,0,-1.35392,341.398,809.006)">
                                    <rect x="1461.81" y="370.153" width="15.669" height="40.658" style="fill:none;stroke:rgb(186,231,134);stroke-width:0.8px;"/>
                                </g>
                                <g transform="matrix(1,0,0,-1,-78.3448,611.339)">
                                    <g>
                                        <g>
                                            <g transform="matrix(0.00109722,0.826359,-0.650512,0.000589819,1841.61,-862.631)">
                                                <rect x="1461.81" y="370.153" width="15.669" height="40.658" style="fill:none;stroke:rgb(186,231,134);stroke-width:1.2px;"/>
                                            </g>
                                            <g transform="matrix(0.00101925,0.767635,-0.999999,0.0009067,1923.99,-829.604)">
                                                <path d="M1538.95,314.447L1547.38,323.128L1530.52,323.128L1538.95,314.447Z" style="fill:none;stroke:rgb(186,231,134);stroke-width:1px;"/>
                                            </g>
                                            <g transform="matrix(0.00101925,0.767635,0.999999,-0.0009067,1251.27,-829.018)">
                                                <path d="M1538.95,314.447L1547.38,323.128L1530.52,323.128L1538.95,314.447Z" style="fill:none;stroke:rgb(186,231,134);stroke-width:1px;"/>
                                            </g>
                                        </g>
                                    </g>
                                </g>
                                <g transform="matrix(1,0,0,-1,-78.3448,631.413)">
                                    <g>
                                        <g>
                                            <g transform="matrix(0.00109722,0.826359,-0.650512,0.000589819,1841.61,-862.631)">
                                                <rect x="1461.81" y="370.153" width="15.669" height="40.658" style="fill:none;stroke:rgb(186,231,134);stroke-width:1.2px;"/>
                                            </g>
                                            <g transform="matrix(0.00101925,0.767635,-0.999999,0.0009067,1923.99,-829.604)">
                                                <path d="M1538.95,314.447L1547.38,323.128L1530.52,323.128L1538.95,314.447Z" style="fill:none;stroke:rgb(186,231,134);stroke-width:1px;"/>
                                            </g>
                                            <g transform="matrix(0.00101925,0.767635,0.999999,-0.0009067,1251.27,-829.018)">
                                                <path d="M1538.95,314.447L1547.38,323.128L1530.52,323.128L1538.95,314.447Z" style="fill:none;stroke:rgb(186,231,134);stroke-width:1px;"/>
                                            </g>
                                        </g>
                                    </g>
                                </g>
                                <g transform="matrix(-1,0,-0,-1,3157.11,631.413)">
                                    <g>
                                        <g>
                                            <g transform="matrix(0.00109722,0.826359,-0.650512,0.000589819,1841.61,-862.631)">
                                                <rect x="1461.81" y="370.153" width="15.669" height="40.658" style="fill:none;stroke:rgb(186,231,134);stroke-width:1.2px;"/>
                                            </g>
                                            <g transform="matrix(0.00101925,0.767635,-0.999999,0.0009067,1923.99,-829.604)">
                                                <path d="M1538.95,314.447L1547.38,323.128L1530.52,323.128L1538.95,314.447Z" style="fill:none;stroke:rgb(186,231,134);stroke-width:1px;"/>
                                            </g>
                                            <g transform="matrix(0.00101925,0.767635,0.999999,-0.0009067,1251.27,-829.018)">
                                                <path d="M1538.95,314.447L1547.38,323.128L1530.52,323.128L1538.95,314.447Z" style="fill:none;stroke:rgb(186,231,134);stroke-width:1px;"/>
                                            </g>
                                        </g>
                                    </g>
                                </g>
                                <g transform="matrix(1,0,0,-1,-21.7474,611.339)">
                                    <g transform="matrix(0.00109722,0.826359,-0.650512,0.000589819,1841.61,-862.631)">
                                        <rect x="1461.81" y="370.153" width="15.669" height="40.658" style="fill:none;stroke:rgb(186,231,134);stroke-width:1.2px;"/>
                                    </g>
                                    <g transform="matrix(0.00101925,0.767635,-0.999999,0.0009067,1923.99,-829.604)">
                                        <path d="M1538.95,314.447L1547.38,323.128L1530.52,323.128L1538.95,314.447Z" style="fill:none;stroke:rgb(186,231,134);stroke-width:1px;"/>
                                    </g>
                                    <g transform="matrix(0.00101925,0.767635,0.999999,-0.0009067,1251.27,-829.018)">
                                        <path d="M1538.95,314.447L1547.38,323.128L1530.52,323.128L1538.95,314.447Z" style="fill:none;stroke:rgb(186,231,134);stroke-width:1px;"/>
                                    </g>
                                </g>
                                <g transform="matrix(0.757081,0,0,1,374.044,-70.3282)">
                                    <path d="M1538.95,314.447L1547.38,323.128L1530.52,323.128L1538.95,314.447Z" style="fill:none;stroke:rgb(186,231,134);stroke-width:1.01px;"/>
                                </g>
                            </g>
                        </g>
                    </g>
                    <g transform="matrix(1.90739,0,0,-1.90739,-1530.4,892.902)">
                        <g>
                            <g>
                                <g transform="matrix(0.814998,0,0,-1.35392,341.398,809.006)">
                                    <rect x="1461.81" y="370.153" width="15.669" height="40.658" style="fill:none;stroke:rgb(186,231,134);stroke-width:0.8px;"/>
                                </g>
                                <g transform="matrix(1,0,0,-1,-78.3448,611.339)">
                                    <g>
                                        <g>
                                            <g transform="matrix(0.00109722,0.826359,-0.650512,0.000589819,1841.61,-862.631)">
                                                <rect x="1461.81" y="370.153" width="15.669" height="40.658" style="fill:none;stroke:rgb(186,231,134);stroke-width:1.2px;"/>
                                            </g>
                                            <g transform="matrix(0.00101925,0.767635,-0.999999,0.0009067,1923.99,-829.604)">
                                                <path d="M1538.95,314.447L1547.38,323.128L1530.52,323.128L1538.95,314.447Z" style="fill:none;stroke:rgb(186,231,134);stroke-width:1px;"/>
                                            </g>
                                            <g transform="matrix(0.00101925,0.767635,0.999999,-0.0009067,1251.27,-829.018)">
                                                <path d="M1538.95,314.447L1547.38,323.128L1530.52,323.128L1538.95,314.447Z" style="fill:none;stroke:rgb(186,231,134);stroke-width:1px;"/>
                                            </g>
                                        </g>
                                    </g>
                                </g>
                                <g transform="matrix(1,0,0,-1,-78.3448,631.413)">
                                    <g>
                                        <g>
                                            <g transform="matrix(0.00109722,0.826359,-0.650512,0.000589819,1841.61,-862.631)">
                                                <rect x="1461.81" y="370.153" width="15.669" height="40.658" style="fill:none;stroke:rgb(186,231,134);stroke-width:1.2px;"/>
                                            </g>
                                            <g transform="matrix(0.00101925,0.767635,-0.999999,0.0009067,1923.99,-829.604)">
                                                <path d="M1538.95,314.447L1547.38,323.128L1530.52,323.128L1538.95,314.447Z" style="fill:none;stroke:rgb(186,231,134);stroke-width:1px;"/>
                                            </g>
                                            <g transform="matrix(0.00101925,0.767635,0.999999,-0.0009067,1251.27,-829.018)">
                                                <path d="M1538.95,314.447L1547.38,323.128L1530.52,323.128L1538.95,314.447Z" style="fill:none;stroke:rgb(186,231,134);stroke-width:1px;"/>
                                            </g>
                                        </g>
                                    </g>
                                </g>
                                <g transform="matrix(-1,0,-0,-1,3157.11,631.413)">
                                    <g>
                                        <g>
                                            <g transform="matrix(0.00109722,0.826359,-0.650512,0.000589819,1841.61,-862.631)">
                                                <rect x="1461.81" y="370.153" width="15.669" height="40.658" style="fill:none;stroke:rgb(186,231,134);stroke-width:1.2px;"/>
                                            </g>
                                            <g transform="matrix(0.00101925,0.767635,-0.999999,0.0009067,1923.99,-829.604)">
                                                <path d="M1538.95,314.447L1547.38,323.128L1530.52,323.128L1538.95,314.447Z" style="fill:none;stroke:rgb(186,231,134);stroke-width:1px;"/>
                                            </g>
                                            <g transform="matrix(0.00101925,0.767635,0.999999,-0.0009067,1251.27,-829.018)">
                                                <path d="M1538.95,314.447L1547.38,323.128L1530.52,323.128L1538.95,314.447Z" style="fill:none;stroke:rgb(186,231,134);stroke-width:1px;"/>
                                            </g>
                                        </g>
                                    </g>
                                </g>
                                <g transform="matrix(1,0,0,-1,-21.7474,611.339)">
                                    <g transform="matrix(0.00109722,0.826359,-0.650512,0.000589819,1841.61,-862.631)">
                                        <rect x="1461.81" y="370.153" width="15.669" height="40.658" style="fill:none;stroke:rgb(186,231,134);stroke-width:1.2px;"/>
                                    </g>
                                    <g transform="matrix(0.00101925,0.767635,-0.999999,0.0009067,1923.99,-829.604)">
                                        <path d="M1538.95,314.447L1547.38,323.128L1530.52,323.128L1538.95,314.447Z" style="fill:none;stroke:rgb(186,231,134);stroke-width:1px;"/>
                                    </g>
                                    <g transform="matrix(0.00101925,0.767635,0.999999,-0.0009067,1251.27,-829.018)">
                                        <path d="M1538.95,314.447L1547.38,323.128L1530.52,323.128L1538.95,314.447Z" style="fill:none;stroke:rgb(186,231,134);stroke-width:1px;"/>
                                    </g>
                                </g>
                                <g transform="matrix(0.757081,0,0,1,374.044,-70.3282)">
                                    <path d="M1538.95,314.447L1547.38,323.128L1530.52,323.128L1538.95,314.447Z" style="fill:none;stroke:rgb(186,231,134);stroke-width:1.01px;"/>
                                </g>
                            </g>
                        </g>
                    </g>
                    <g transform="matrix(1,0,0,1,-0.0528172,0)">
                        <g transform="matrix(1.90739,0,0,1.90739,-1613.27,-378.253)">
                            <g transform="matrix(0.00109722,0.826359,-0.324833,0.000294526,1707.82,-862.509)">
                                <rect x="1461.81" y="370.153" width="15.669" height="40.658" style="fill:none;stroke:rgb(186,231,134);stroke-width:1.42px;"/>
                            </g>
                            <g transform="matrix(0.00101925,0.767635,-0.999999,0.0009067,1910.77,-829.58)">
                                <path d="M1538.95,314.447L1547.38,323.128L1530.52,323.128L1538.95,314.447Z" style="fill:none;stroke:rgb(186,231,134);stroke-width:1px;"/>
                            </g>
                            <g transform="matrix(0.00101925,0.767635,0.999999,-0.0009067,1251.27,-829.018)">
                                <path d="M1538.95,314.447L1547.38,323.128L1530.52,323.128L1538.95,314.447Z" style="fill:none;stroke:rgb(186,231,134);stroke-width:1px;"/>
                            </g>
                        </g>
                        <g transform="matrix(1.90739,0,0,1.90739,-1696.86,-378.253)">
                            <g transform="matrix(0.00109722,0.826359,-0.650512,0.000589819,1841.61,-862.631)">
                                <rect x="1461.81" y="370.153" width="15.669" height="40.658" style="fill:none;stroke:rgb(186,231,134);stroke-width:1.2px;"/>
                            </g>
                            <g transform="matrix(0.00101925,0.767635,-0.999999,0.0009067,1923.99,-829.604)">
                                <path d="M1538.95,314.447L1547.38,323.128L1530.52,323.128L1538.95,314.447Z" style="fill:none;stroke:rgb(186,231,134);stroke-width:1px;"/>
                            </g>
                            <g transform="matrix(0.00101925,0.767635,0.999999,-0.0009067,1251.27,-829.018)">
                                <path d="M1538.95,314.447L1547.38,323.128L1530.52,323.128L1538.95,314.447Z" style="fill:none;stroke:rgb(186,231,134);stroke-width:1px;"/>
                            </g>
                        </g>
                    </g>
                    <g transform="matrix(1,0,0,1,38.2356,-137.732)">
                        <g transform="matrix(1,0,0,1,-5.59567,-0.672492)">
                            <rect x="1258.42" y="429.676" width="1.543" height="4.24" style="fill:rgb(186,231,134);stroke:rgb(186,231,134);stroke-width:1.7px;"/>
                        </g>
                        <path d="M1249.67,441.579C1251.47,441.58 1253.07,440.429 1253.64,438.722C1254.1,437.117 1254.37,435.449 1254.37,433.762C1254.37,425.132 1247.55,418.127 1239.15,418.127C1230.75,418.127 1223.94,425.132 1223.94,433.762C1223.94,435.55 1224.24,437.317 1224.81,438.989C1225.36,440.514 1226.8,441.532 1228.42,441.532C1233.37,441.579 1244.55,441.579 1249.67,441.579Z" style="fill:rgb(186,231,134);"/>
                    </g>
                </g>
            </g>
        </g>
    </g>
</svg>
