<?xml version="1.0" encoding="UTF-8" standalone="no"?>
<!DOCTYPE svg PUBLIC "-//W3C//DTD SVG 1.1//EN" "http://www.w3.org/Graphics/SVG/1.1/DTD/svg11.dtd">
<svg width="100%" height="100%" viewBox="0 0 167 123" version="1.1" xmlns="http://www.w3.org/2000/svg" xmlns:xlink="http://www.w3.org/1999/xlink" xml:space="preserve" xmlns:serif="http://www.serif.com/" style="fill-rule:evenodd;clip-rule:evenodd;stroke-linecap:round;stroke-linejoin:round;stroke-miterlimit:1.5;">
    <g transform="matrix(1,0,0,1,-1170.3,-250.117)">
        <g transform="matrix(1,0,0,1,-8.83052,15.9626)">
            <g transform="matrix(3.84068e-17,-0.57929,0.627231,3.54713e-17,1079.73,1104.79)">
                <g>
                    <g>
                        <g transform="matrix(1.90739,0,0,1.90739,-1530.4,-306.306)">
                            <g>
                                <g>
                                    <g transform="matrix(0.814998,0,0,-1.35392,341.398,809.006)">
                                        <rect x="1461.81" y="370.153" width="15.669" height="40.658" style="fill:none;stroke:rgb(186,231,134);stroke-width:0.81px;"/>
                                    </g>
                                    <g transform="matrix(1,0,0,-1,-78.3448,611.339)">
                                        <g>
                                            <g>
                                                <g transform="matrix(0.00109722,0.826359,-0.650512,0.000589819,1841.61,-862.631)">
                                                    <rect x="1461.81" y="370.153" width="15.669" height="40.658" style="fill:none;stroke:rgb(186,231,134);stroke-width:1.23px;"/>
                                                </g>
                                                <g transform="matrix(0.00101925,0.767635,-0.999999,0.0009067,1923.99,-829.604)">
                                                    <path d="M1538.95,314.447L1547.38,323.128L1530.52,323.128L1538.95,314.447Z" style="fill:none;stroke:rgb(186,231,134);stroke-width:1.05px;"/>
                                                </g>
                                                <g transform="matrix(0.00101925,0.767635,0.999999,-0.0009067,1251.27,-829.018)">
                                                    <path d="M1538.95,314.447L1547.38,323.128L1530.52,323.128L1538.95,314.447Z" style="fill:none;stroke:rgb(186,231,134);stroke-width:1.05px;"/>
                                                </g>
                                            </g>
                                        </g>
                                    </g>
                                    <g transform="matrix(1,0,0,-1,-78.3448,631.413)">
                                        <g>
                                            <g>
                                                <g transform="matrix(0.00109722,0.826359,-0.650512,0.000589819,1841.61,-862.631)">
                                                    <rect x="1461.81" y="370.153" width="15.669" height="40.658" style="fill:none;stroke:rgb(186,231,134);stroke-width:1.23px;"/>
                                                </g>
                                                <g transform="matrix(0.00101925,0.767635,-0.999999,0.0009067,1923.99,-829.604)">
                                                    <path d="M1538.95,314.447L1547.38,323.128L1530.52,323.128L1538.95,314.447Z" style="fill:none;stroke:rgb(186,231,134);stroke-width:1.05px;"/>
                                                </g>
                                                <g transform="matrix(0.00101925,0.767635,0.999999,-0.0009067,1251.27,-829.018)">
                                                    <path d="M1538.95,314.447L1547.38,323.128L1530.52,323.128L1538.95,314.447Z" style="fill:none;stroke:rgb(186,231,134);stroke-width:1.05px;"/>
                                                </g>
                                            </g>
                                        </g>
                                    </g>
                                    <g transform="matrix(-1,0,-0,-1,3157.11,631.413)">
                                        <g>
                                            <g>
                                                <g transform="matrix(0.00109722,0.826359,-0.650512,0.000589819,1841.61,-862.631)">
                                                    <rect x="1461.81" y="370.153" width="15.669" height="40.658" style="fill:none;stroke:rgb(186,231,134);stroke-width:1.23px;"/>
                                                </g>
                                                <g transform="matrix(0.00101925,0.767635,-0.999999,0.0009067,1923.99,-829.604)">
                                                    <path d="M1538.95,314.447L1547.38,323.128L1530.52,323.128L1538.95,314.447Z" style="fill:none;stroke:rgb(186,231,134);stroke-width:1.05px;"/>
                                                </g>
                                                <g transform="matrix(0.00101925,0.767635,0.999999,-0.0009067,1251.27,-829.018)">
                                                    <path d="M1538.95,314.447L1547.38,323.128L1530.52,323.128L1538.95,314.447Z" style="fill:none;stroke:rgb(186,231,134);stroke-width:1.05px;"/>
                                                </g>
                                            </g>
                                        </g>
                                    </g>
                                    <g transform="matrix(1,0,0,-1,-21.7474,611.339)">
                                        <g transform="matrix(0.00109722,0.826359,-0.650512,0.000589819,1841.61,-862.631)">
                                            <rect x="1461.81" y="370.153" width="15.669" height="40.658" style="fill:none;stroke:rgb(186,231,134);stroke-width:1.23px;"/>
                                        </g>
                                        <g transform="matrix(0.00101925,0.767635,-0.999999,0.0009067,1923.99,-829.604)">
                                            <path d="M1538.95,314.447L1547.38,323.128L1530.52,323.128L1538.95,314.447Z" style="fill:none;stroke:rgb(186,231,134);stroke-width:1.05px;"/>
                                        </g>
                                        <g transform="matrix(0.00101925,0.767635,0.999999,-0.0009067,1251.27,-829.018)">
                                            <path d="M1538.95,314.447L1547.38,323.128L1530.52,323.128L1538.95,314.447Z" style="fill:none;stroke:rgb(186,231,134);stroke-width:1.05px;"/>
                                        </g>
                                    </g>
                                    <g transform="matrix(0.757081,0,0,1,374.044,-70.3282)">
                                        <path d="M1538.95,314.447L1547.38,323.128L1530.52,323.128L1538.95,314.447Z" style="fill:none;stroke:rgb(186,231,134);stroke-width:1.03px;"/>
                                    </g>
                                </g>
                            </g>
                        </g>
                        <g transform="matrix(1.90739,0,0,-1.90739,-1530.91,888.961)">
                            <g>
                                <g>
                                    <g transform="matrix(0.814998,0,0,-1.35392,341.398,809.006)">
                                        <rect x="1461.81" y="370.153" width="15.669" height="40.658" style="fill:none;stroke:rgb(186,231,134);stroke-width:0.81px;"/>
                                    </g>
                                    <g transform="matrix(1,0,0,-1,-78.3448,611.339)">
                                        <g>
                                            <g>
                                                <g transform="matrix(0.00109722,0.826359,-0.650512,0.000589819,1841.61,-862.631)">
                                                    <rect x="1461.81" y="370.153" width="15.669" height="40.658" style="fill:none;stroke:rgb(186,231,134);stroke-width:1.23px;"/>
                                                </g>
                                                <g transform="matrix(0.00101925,0.767635,-0.999999,0.0009067,1923.99,-829.604)">
                                                    <path d="M1538.95,314.447L1547.38,323.128L1530.52,323.128L1538.95,314.447Z" style="fill:none;stroke:rgb(186,231,134);stroke-width:1.05px;"/>
                                                </g>
                                                <g transform="matrix(0.00101925,0.767635,0.999999,-0.0009067,1251.27,-829.018)">
                                                    <path d="M1538.95,314.447L1547.38,323.128L1530.52,323.128L1538.95,314.447Z" style="fill:none;stroke:rgb(186,231,134);stroke-width:1.05px;"/>
                                                </g>
                                            </g>
                                        </g>
                                    </g>
                                    <g transform="matrix(1,0,0,-1,-78.3448,631.413)">
                                        <g>
                                            <g>
                                                <g transform="matrix(0.00109722,0.826359,-0.650512,0.000589819,1841.61,-862.631)">
                                                    <rect x="1461.81" y="370.153" width="15.669" height="40.658" style="fill:none;stroke:rgb(186,231,134);stroke-width:1.23px;"/>
                                                </g>
                                                <g transform="matrix(0.00101925,0.767635,-0.999999,0.0009067,1923.99,-829.604)">
                                                    <path d="M1538.95,314.447L1547.38,323.128L1530.52,323.128L1538.95,314.447Z" style="fill:none;stroke:rgb(186,231,134);stroke-width:1.05px;"/>
                                                </g>
                                                <g transform="matrix(0.00101925,0.767635,0.999999,-0.0009067,1251.27,-829.018)">
                                                    <path d="M1538.95,314.447L1547.38,323.128L1530.52,323.128L1538.95,314.447Z" style="fill:none;stroke:rgb(186,231,134);stroke-width:1.05px;"/>
                                                </g>
                                            </g>
                                        </g>
                                    </g>
                                    <g transform="matrix(-1,0,-0,-1,3157.11,631.413)">
                                        <g>
                                            <g>
                                                <g transform="matrix(0.00109722,0.826359,-0.650512,0.000589819,1841.61,-862.631)">
                                                    <rect x="1461.81" y="370.153" width="15.669" height="40.658" style="fill:none;stroke:rgb(186,231,134);stroke-width:1.23px;"/>
                                                </g>
                                                <g transform="matrix(0.00101925,0.767635,-0.999999,0.0009067,1923.99,-829.604)">
                                                    <path d="M1538.95,314.447L1547.38,323.128L1530.52,323.128L1538.95,314.447Z" style="fill:none;stroke:rgb(186,231,134);stroke-width:1.05px;"/>
                                                </g>
                                                <g transform="matrix(0.00101925,0.767635,0.999999,-0.0009067,1251.27,-829.018)">
                                                    <path d="M1538.95,314.447L1547.38,323.128L1530.52,323.128L1538.95,314.447Z" style="fill:none;stroke:rgb(186,231,134);stroke-width:1.05px;"/>
                                                </g>
                                            </g>
                                        </g>
                                    </g>
                                    <g transform="matrix(1,0,0,-1,-21.7474,611.339)">
                                        <g transform="matrix(0.00109722,0.826359,-0.650512,0.000589819,1841.61,-862.631)">
                                            <rect x="1461.81" y="370.153" width="15.669" height="40.658" style="fill:none;stroke:rgb(186,231,134);stroke-width:1.23px;"/>
                                        </g>
                                        <g transform="matrix(0.00101925,0.767635,-0.999999,0.0009067,1923.99,-829.604)">
                                            <path d="M1538.95,314.447L1547.38,323.128L1530.52,323.128L1538.95,314.447Z" style="fill:none;stroke:rgb(186,231,134);stroke-width:1.05px;"/>
                                        </g>
                                        <g transform="matrix(0.00101925,0.767635,0.999999,-0.0009067,1251.27,-829.018)">
                                            <path d="M1538.95,314.447L1547.38,323.128L1530.52,323.128L1538.95,314.447Z" style="fill:none;stroke:rgb(186,231,134);stroke-width:1.05px;"/>
                                        </g>
                                    </g>
                                    <g transform="matrix(0.757081,0,0,1,374.044,-70.3282)">
                                        <path d="M1538.95,314.447L1547.38,323.128L1530.52,323.128L1538.95,314.447Z" style="fill:none;stroke:rgb(186,231,134);stroke-width:1.03px;"/>
                                    </g>
                                </g>
                            </g>
                        </g>
                        <g transform="matrix(1,0,0,1,-0.0528172,0)">
                            <g transform="matrix(1.90739,0,0,1.90739,-1613.27,-378.253)">
                                <g transform="matrix(0.00109722,0.826359,-0.324833,0.000294526,1707.82,-862.509)">
                                    <rect x="1461.81" y="370.153" width="15.669" height="40.658" style="fill:none;stroke:rgb(186,231,134);stroke-width:1.43px;"/>
                                </g>
                                <g transform="matrix(0.00101925,0.767635,-0.999999,0.0009067,1910.77,-829.58)">
                                    <path d="M1538.95,314.447L1547.38,323.128L1530.52,323.128L1538.95,314.447Z" style="fill:none;stroke:rgb(186,231,134);stroke-width:1.05px;"/>
                                </g>
                                <g transform="matrix(0.00101925,0.767635,0.999999,-0.0009067,1251.27,-829.018)">
                                    <path d="M1538.95,314.447L1547.38,323.128L1530.52,323.128L1538.95,314.447Z" style="fill:none;stroke:rgb(186,231,134);stroke-width:1.05px;"/>
                                </g>
                            </g>
                            <g transform="matrix(1.90739,0,0,1.90739,-1696.86,-378.253)">
                                <g transform="matrix(0.00109722,0.826359,-0.650512,0.000589819,1841.61,-862.631)">
                                    <rect x="1461.81" y="370.153" width="15.669" height="40.658" style="fill:none;stroke:rgb(186,231,134);stroke-width:1.23px;"/>
                                </g>
                                <g transform="matrix(0.00101925,0.767635,-0.999999,0.0009067,1923.99,-829.604)">
                                    <path d="M1538.95,314.447L1547.38,323.128L1530.52,323.128L1538.95,314.447Z" style="fill:none;stroke:rgb(186,231,134);stroke-width:1.05px;"/>
                                </g>
                                <g transform="matrix(0.00101925,0.767635,0.999999,-0.0009067,1251.27,-829.018)">
                                    <path d="M1538.95,314.447L1547.38,323.128L1530.52,323.128L1538.95,314.447Z" style="fill:none;stroke:rgb(186,231,134);stroke-width:1.05px;"/>
                                </g>
                            </g>
                        </g>
                    </g>
                </g>
            </g>
        </g>
    </g>
</svg>
